<svg width="14" height="14" viewBox="0 0 14 14" fill="none" xmlns="http://www.w3.org/2000/svg">
<g clip-path="url(#clip0_2712_85136)">
<path d="M11.3333 5.58508H6.45833C5.86002 5.58508 5.375 6.07011 5.375 6.66842V11.5434C5.375 12.1417 5.86002 12.6267 6.45833 12.6267H11.3333C11.9316 12.6267 12.4167 12.1417 12.4167 11.5434V6.66842C12.4167 6.07011 11.9316 5.58508 11.3333 5.58508Z" stroke="#939393" stroke-linecap="round" stroke-linejoin="round"/>
<path d="M3.20837 8.83506H2.66671C2.37939 8.83506 2.10384 8.72093 1.90067 8.51776C1.69751 8.3146 1.58337 8.03905 1.58337 7.75173V2.87673C1.58337 2.58941 1.69751 2.31386 1.90067 2.1107C2.10384 1.90753 2.37939 1.7934 2.66671 1.7934H7.54171C7.82903 1.7934 8.10458 1.90753 8.30774 2.1107C8.5109 2.31386 8.62504 2.58941 8.62504 2.87673V3.4184" stroke="#939393" stroke-linecap="round" stroke-linejoin="round"/>
</g>
<defs>
<clipPath id="clip0_2712_85136">
<rect width="13" height="13" fill="white" transform="translate(0.5 0.710083)"/>
</clipPath>
</defs>
</svg>
