<svg width="24" height="24" viewBox="0 0 24 24" fill="none" xmlns="http://www.w3.org/2000/svg">
<path fill-rule="evenodd" clip-rule="evenodd" d="M12 22C17.5228 22 22 17.5228 22 12C22 6.47715 17.5228 2 12 2C6.47715 2 2 6.47715 2 12C2 17.5228 6.47715 22 12 22ZM7.46967 11.4697C7.76256 11.1768 8.23744 11.1768 8.53033 11.4697L11.25 14.1893V8C11.25 7.58579 11.5858 7.25 12 7.25C12.4142 7.25 12.75 7.58579 12.75 8V14.1893L15.4697 11.4697C15.7626 11.1768 16.2374 11.1768 16.5303 11.4697C16.8232 11.7626 16.8232 12.2374 16.5303 12.5303L12.5303 16.5303C12.3839 16.6768 12.1919 16.75 12 16.75C11.8983 16.75 11.8013 16.7298 11.7129 16.6931C11.6245 16.6565 11.5416 16.6022 11.4697 16.5303L7.46967 12.5303C7.17678 12.2374 7.17678 11.7626 7.46967 11.4697Z" fill="#101010"/>
</svg>
