<svg width="24" height="24" viewBox="0 0 24 24" fill="none" xmlns="http://www.w3.org/2000/svg">
<path fill-rule="evenodd" clip-rule="evenodd" d="M18.2564 3.27321C16.2464 2.62321 13.6864 3.09321 12.3464 5.11321C10.9364 3.16321 8.44642 2.62321 6.43642 3.27321C2.59642 4.51321 1.23642 9.05321 2.40642 12.7032C4.28642 18.5632 10.5864 21.5032 12.3564 21.5032C14.1264 21.5032 20.4864 18.4832 22.3064 12.7032C23.4764 9.05321 22.0964 4.51321 18.2664 3.27321H18.2564ZM18.5164 10.7732C18.5164 10.7732 18.4964 10.7732 18.4864 10.7732C18.0764 10.7632 17.7464 10.4132 17.7664 10.0032C17.8064 8.92321 17.2764 8.23321 16.3464 8.13321C15.9364 8.09321 15.6364 7.72321 15.6764 7.31321C15.7164 6.90321 16.0764 6.61321 16.4964 6.64321C18.2064 6.82321 19.3164 8.19321 19.2564 10.0532C19.2464 10.4632 18.9064 10.7832 18.5064 10.7832L18.5164 10.7732Z" fill="#101010"/>
</svg>
