<svg width="24" height="25" viewBox="0 0 24 25" fill="none" xmlns="http://www.w3.org/2000/svg">
<path d="M3.37245 18.0573H4.08851L12.2929 22.1379C12.6294 22.3018 12.9917 22.3881 13.354 22.3881C13.7854 22.3881 14.2167 22.2673 14.6049 22.0257C15.3037 21.5857 15.7265 20.8352 15.7265 20.007V4.87529C15.7265 4.04709 15.3038 3.29653 14.6049 2.85656C13.8975 2.42521 13.0348 2.38206 12.2929 2.74441L4.08851 6.82493H3.37245C2.06114 6.82493 1 7.89469 1 9.19738V15.6849C1 16.9876 2.06114 18.0573 3.37245 18.0573Z" fill="black"/>
<path d="M18.9345 5.30008C18.6929 5.56321 18.7102 5.97191 18.9733 6.21455C20.7106 7.81054 21.7059 10.0795 21.7059 12.4412C21.7059 14.8029 20.7105 17.0716 18.9733 18.6679C18.7102 18.9094 18.6929 19.3192 18.9345 19.5823C19.0617 19.7214 19.2375 19.7915 19.4111 19.7915C19.5686 19.7915 19.7238 19.7355 19.8489 19.6211C21.8515 17.7814 22.9999 15.1632 22.9999 12.4412C22.9999 9.71923 21.8515 7.10213 19.8489 5.26133C19.5858 5.02085 19.1771 5.03594 18.9334 5.30015L18.9345 5.30008Z" fill="black"/>
<path d="M17.4466 16.9746C17.5738 17.1137 17.7485 17.1838 17.9232 17.1838C18.0807 17.1838 18.2359 17.1277 18.361 17.0134C19.6368 15.8412 20.3679 14.1741 20.3679 12.4412C20.3679 10.7084 19.6368 9.04121 18.361 7.86793C18.0968 7.62745 17.6892 7.64363 17.4466 7.90568C17.205 8.1688 17.2212 8.57858 17.4843 8.82014C18.4948 9.74863 19.0738 11.0675 19.0738 12.4402C19.0738 13.8129 18.4947 15.1329 17.4843 16.0602C17.2212 16.3018 17.205 16.7115 17.4466 16.9746Z" fill="black"/>
</svg>
