<svg width="24" height="24" viewBox="0 0 24 24" fill="none" xmlns="http://www.w3.org/2000/svg">
<path d="M11.9951 10.965C11.8951 10.955 11.7751 10.955 11.6651 10.965C9.28514 10.885 7.39514 8.93497 7.39514 6.53497C7.39514 4.08497 9.37514 2.09497 11.8351 2.09497C14.2851 2.09497 16.2751 4.08497 16.2751 6.53497C16.2651 8.93497 14.3751 10.885 11.9951 10.965Z" stroke="#939393" stroke-width="1.5" stroke-linecap="round" stroke-linejoin="round"/>
<path d="M6.99505 14.655C4.57505 16.275 4.57505 18.915 6.99505 20.525C9.74505 22.365 14.2551 22.365 17.0051 20.525C19.4251 18.905 19.4251 16.265 17.0051 14.655C14.2651 12.825 9.75505 12.825 6.99505 14.655Z" stroke="#939393" stroke-width="1.5" stroke-linecap="round" stroke-linejoin="round"/>
<path fill-rule="evenodd" clip-rule="evenodd" d="M13.1862 7.79143C12.5411 8.48947 11.4748 8.44838 10.4847 7.69141L13.1862 7.79143Z" fill="#101010"/>
<path d="M13.1862 7.79143C12.5411 8.48947 11.4748 8.44838 10.4847 7.69141" stroke="#939393" stroke-linecap="round" stroke-linejoin="round"/>
</svg>
