<svg width="24" height="24" viewBox="0 0 24 24" fill="none" xmlns="http://www.w3.org/2000/svg">
<path d="M6.99505 14.655C4.57505 16.275 4.57505 18.915 6.99505 20.525C9.74505 22.365 14.2551 22.365 17.0051 20.525C19.4251 18.905 19.4251 16.265 17.0051 14.655C14.2651 12.825 9.75505 12.825 6.99505 14.655Z" fill="#101010"/>
<path d="M11.835 2.09497C9.37502 2.09497 7.39502 4.08497 7.39502 6.53497C7.39502 8.98497 9.28502 10.885 11.665 10.965C11.775 10.955 11.895 10.955 11.995 10.965C14.375 10.885 16.265 8.93497 16.275 6.53497C16.275 4.08497 14.285 2.09497 11.835 2.09497ZM13.545 8.13497C13.145 8.57497 12.605 8.79497 12.025 8.79497C11.445 8.79497 10.775 8.56497 10.165 8.09497C9.94502 7.92497 9.90502 7.61497 10.075 7.39497C10.245 7.17497 10.555 7.13497 10.775 7.30497C11.555 7.89497 12.345 7.95497 12.805 7.46497C12.995 7.26497 13.305 7.25497 13.515 7.43497C13.715 7.62497 13.725 7.93497 13.545 8.14497V8.13497Z" fill="#101010"/>
</svg>
