<svg width="44" height="45" viewBox="0 0 44 45" fill="none" xmlns="http://www.w3.org/2000/svg">
<path fill-rule="evenodd" clip-rule="evenodd" d="M22.0501 0.337402H21.9499C9.8273 0.337402 0 10.1647 0 22.2873V22.3875C0 34.5101 9.8273 44.3374 21.9499 44.3374H22.0501C34.1727 44.3374 44 34.5101 44 22.3875V22.2873C44 10.1647 34.1727 0.337402 22.0501 0.337402ZM26.2908 28.7722C20.6596 28.7722 16.0781 24.1892 16.0766 18.558C16.0781 17.1305 17.2404 15.9697 18.6648 15.9697C18.8113 15.9697 18.9562 15.9821 19.0949 16.0067C19.4001 16.0576 19.6899 16.1609 19.9566 16.3166C19.9952 16.3397 20.0214 16.3767 20.0275 16.4199L20.6226 20.1704C20.6303 20.2136 20.6164 20.2583 20.5871 20.2907C20.2588 20.6545 19.8395 20.9165 19.3724 21.0475L19.1473 21.1107L19.2321 21.3281C19.9998 23.2828 21.5629 24.8443 23.5191 25.6151L23.7365 25.7014L23.7997 25.4764C23.9307 25.0093 24.1928 24.59 24.5566 24.2616C24.5828 24.237 24.6182 24.2246 24.6537 24.2246C24.6614 24.2246 24.6691 24.2246 24.6784 24.2262L28.4289 24.8212C28.4736 24.8289 28.5106 24.8536 28.5337 24.8921C28.6879 25.1588 28.7912 25.4502 28.8436 25.7554C28.8682 25.891 28.879 26.0344 28.879 26.1839C28.879 27.6098 27.7182 28.7706 26.2908 28.7722ZM31.8496 12.1385C34.4008 14.4863 35.9732 17.6695 36.2769 21.101L36.2753 21.1025C36.3123 21.5049 36.3308 21.9211 36.3308 22.3373V22.4113C36.2938 28.9489 31.6214 34.6295 25.221 35.9228C24.7924 36.0092 24.3562 36.077 23.9246 36.1232C23.4343 36.1741 22.9457 36.1988 22.4693 36.1988C20.658 36.1988 18.8976 35.8535 17.2343 35.1721L7.66907 36.1911L10.6566 29.5779C9.31697 27.4012 8.60942 24.9024 8.60942 22.3373C8.60942 14.6944 14.828 8.47583 22.4709 8.47583C25.9532 8.47583 29.2829 9.77689 31.8496 12.1385ZM12.3106 32.8336L17.6027 32.2694L17.6043 32.2725L17.8047 32.3696C17.9418 32.4359 18.0883 32.5006 18.2378 32.5608C19.5836 33.1219 21.008 33.4055 22.474 33.4055C22.8856 33.4055 23.3002 33.3824 23.7041 33.3361C24.0926 33.2945 24.4826 33.2298 24.8633 33.145C29.8517 32.0413 33.4173 27.7065 33.5345 22.6024C33.536 22.5115 33.5376 22.4267 33.5376 22.3404C33.5376 22.0382 33.5237 21.7315 33.499 21.4263C33.0319 15.7334 28.1869 11.2737 22.4709 11.2737C16.3695 11.2737 11.4057 16.2375 11.4057 22.3388C11.4057 24.6789 12.1303 26.9172 13.5022 28.8117C13.5285 28.8472 13.5516 28.878 13.5747 28.9089L13.8907 29.3328L12.3106 32.8336Z" fill="#383D38"/>
</svg>
