<svg width="44" height="45" viewBox="0 0 44 45" fill="none" xmlns="http://www.w3.org/2000/svg">
<path fill-rule="evenodd" clip-rule="evenodd" d="M21.9499 0.337402H22.0501C34.1727 0.337402 44 10.1647 44 22.2874V22.3875C44 34.5101 34.1727 44.3374 22.0501 44.3374H21.9499C9.82733 44.3374 0 34.5101 0 22.3875V22.2874C0 10.1647 9.82733 0.337402 21.9499 0.337402ZM15.1926 10.0413H28.8074C32.5688 10.0413 35.6287 13.1012 35.6287 16.8625V29.3181C35.6287 33.0795 32.5688 36.1394 28.8074 36.1394H15.1926C11.4313 36.1394 8.37134 33.0795 8.37134 29.3181V16.8625C8.37134 13.1012 11.4313 10.0413 15.1926 10.0413ZM15.1926 12.4476C12.7585 12.4476 10.7776 14.4285 10.7776 16.8625V29.3181C10.7776 31.7522 12.7585 33.7332 15.1926 33.7332H28.8074C31.2415 33.7332 33.2224 31.7522 33.2224 29.3181V16.8625C33.2224 14.4285 31.2415 12.4476 28.8074 12.4476H15.1926ZM22.0002 29.4336C25.4979 29.4336 28.3451 26.5879 28.3451 23.0886C28.3451 19.5894 25.4995 16.7437 22.0002 16.7437C18.5009 16.7437 15.6552 19.5894 15.6552 23.0886C15.6552 26.5879 18.5009 29.4336 22.0002 29.4336ZM22.0002 19.1516C24.1722 19.1516 25.9388 20.9182 25.9388 23.0902C25.9388 25.2622 24.1722 27.0288 22.0002 27.0288C19.8281 27.0288 18.0615 25.2622 18.0615 23.0902C18.0615 20.9182 19.8281 19.1516 22.0002 19.1516ZM30.6423 16.0588C30.6423 17.0022 29.8746 17.7684 28.9327 17.7684C27.9893 17.7684 27.2232 17.0022 27.2232 16.0588C27.2232 15.1154 27.9893 14.3492 28.9327 14.3492C29.8762 14.3492 30.6423 15.1154 30.6423 16.0588Z" fill="#383D38"/>
</svg>
