<svg width="44" height="45" viewBox="0 0 44 45" fill="none" xmlns="http://www.w3.org/2000/svg">
<path fill-rule="evenodd" clip-rule="evenodd" d="M25.0614 44.1262C35.7608 42.6356 43.9969 33.4495 43.9969 22.3382H44C44 10.1878 34.1499 0.337402 22 0.337402C9.85005 0.337402 0 10.1878 0 22.3382C0 33.2877 8.00028 42.3704 18.4746 44.0569C19.6215 44.2418 20.7992 44.3374 21.9985 44.3374C23.0374 44.3374 24.061 44.265 25.0614 44.1262ZM19.0683 23.6068L8.92234 10.0413H8.92386H16.7438L23.3953 18.9344L31.6268 10.0413H33.9251L24.4219 20.3079L35.1383 34.6364H27.3184L20.0965 24.9803L11.1575 34.6364H8.85913L19.0683 23.6068ZM15.8929 11.7339H12.3012L28.1646 32.9438H31.7563L15.8929 11.7339Z" fill="#383D38"/>
</svg>
