<svg width="44" height="45" viewBox="0 0 44 45" fill="none" xmlns="http://www.w3.org/2000/svg">
<path fill-rule="evenodd" clip-rule="evenodd" d="M25.0614 44.1257C35.7608 42.635 43.9969 33.4491 43.9969 22.3376H44C44 10.1873 34.15 0.336914 22 0.336914C9.85004 0.336914 0 10.1873 0 22.3376C0 33.2872 8.00031 42.3699 18.4746 44.0564L18.4747 29.2517H13.0071V22.7958H18.4747V16.9318C18.4747 13.2938 21.4236 10.3433 25.063 10.3433V10.3463C25.0738 10.3463 25.083 10.3433 25.0938 10.3433H30.9915V15.9268H27.1378C25.9925 15.9268 25.063 16.8562 25.063 18.0016L25.0615 18.0032V22.7958H30.99L30.0512 29.2517H25.0615L25.0614 44.1257Z" fill="#383D38"/>
</svg>
